<svg xmlns="http://www.w3.org/2000/svg"  viewBox="0 0 16 16" width="40px" height="40px"><path fill="#f78f8f" d="M7.5,15.5c-2.692,0-5-5.066-5-9.214c0-3.677,1.822-5.786,5-5.786s5,2.109,5,5.786 C12.5,10.434,10.192,15.5,7.5,15.5z"/><path fill="#c74343" d="M7.5,1C10.402,1,12,2.877,12,6.286C12,10.521,9.687,15,7.5,15S3,10.521,3,6.286 C3,2.877,4.598,1,7.5,1 M7.5,0C4.457,0,2,1.867,2,6.286C2,10.705,4.457,16,7.5,16S13,10.705,13,6.286C13,1.867,10.543,0,7.5,0 L7.5,0z"/><path fill="#c74343" d="M7,0.011v15.96C7.167,15.98,7.331,16,7.5,16s0.333-0.02,0.5-0.03V0.011C7.833,0.007,7.669,0,7.5,0	S7.167,0.007,7,0.011z"/><path fill="none" stroke="#c74343" stroke-miterlimit="10" d="M7 8L11.167 2M3.833 2L8 8M7.5 2.857c0 0 .919.672 2.5.672 0 1.69 1.35 2.756 1.35 2.756M7.5 2.857c0 0-.919.672-2.5.672 0 1.69-1.35 2.756-1.35 2.756"/><path fill="#fff" d="M5,11C3.906,9.863,3,7.589,3,5c0.257,1.905,4,3,4,3S6.478,10.232,5,11z"/><path fill="#c74343" d="M7.937,13.886l-0.877-0.481C7.092,13.348,7.843,12,9.7,12H11v1H9.7	C8.455,13,7.958,13.849,7.937,13.886z"/><path fill="#c74343" d="M7.062,13.885C7.042,13.849,6.546,13,5.301,13H4v-1h1.301c1.857,0,2.608,1.348,2.639,1.405	l-0.879,0.476L7.5,13.643L7.062,13.885z"/><path fill="#66798f" d="M4,5c0,0-0.693-2.03-0.055-3.821c-1.072,0.9-1.789,2.342-1.92,4.411	c0.122,2.424,0.974,4.773,2.255,6.104l0.518,0.538l0.663-0.345c1.833-0.952,2.449-3.385,2.513-3.66l0.215-0.922L7.281,7.04	C5.973,6.654,4.322,5.851,4,5z M5,11C3.906,9.863,3,7.589,3,5c0.257,1.905,4,3,4,3S6.478,10.232,5,11z"/><path fill="#fff" d="M10,11c1.094-1.137,2-3.411,2-6c-0.257,1.905-4,3-4,3S8.522,10.232,10,11z"/><path fill="#66798f" d="M7.719,7.04L6.811,7.306l0.215,0.922c0.064,0.274,0.68,2.707,2.513,3.66l0.663,0.345l0.518-0.538	c1.281-1.331,2.133-3.68,2.255-6.104c-0.131-2.069-0.848-3.51-1.92-4.411C11.693,2.97,11,5,11,5	C10.678,5.851,9.027,6.654,7.719,7.04z M8,8c0,0,3.743-1.095,4-3c0,2.589-0.906,4.863-2,6C8.522,10.232,8,8,8,8z"/></svg>